<svg width="48" height="58" viewBox="0 0 48 58" fill="none" xmlns="http://www.w3.org/2000/svg">
<path fill-rule="evenodd" clip-rule="evenodd" d="M23.4462 55.9674C30.4305 55.9674 36.0924 50.3055 36.0924 43.3212C36.0924 36.3369 30.4305 30.675 23.4462 30.675C16.4619 30.675 10.8 36.3369 10.8 43.3212C10.8 50.3055 16.4619 55.9674 23.4462 55.9674ZM23.4462 57.7674C31.4246 57.7674 37.8924 51.2996 37.8924 43.3212C37.8924 35.3428 31.4246 28.875 23.4462 28.875C15.4678 28.875 9 35.3428 9 43.3212C9 51.2996 15.4678 57.7674 23.4462 57.7674Z" fill="white"/>
<path fill-rule="evenodd" clip-rule="evenodd" d="M23.6903 34.6422C24.1874 34.6422 24.5903 35.0452 24.5903 35.5422L24.5903 49.5017C24.5903 49.9988 24.1874 50.4017 23.6903 50.4017C23.1933 50.4017 22.7903 49.9988 22.7903 49.5017L22.7903 35.5422C22.7903 35.0452 23.1933 34.6422 23.6903 34.6422Z" fill="white"/>
<path fill-rule="evenodd" clip-rule="evenodd" d="M31.3267 42.7651C31.3267 43.2622 30.9237 43.6651 30.4267 43.6651L16.4672 43.6651C15.9701 43.6651 15.5672 43.2622 15.5672 42.7651C15.5672 42.268 15.9701 41.8651 16.4672 41.8651L30.4267 41.8651C30.9237 41.8651 31.3267 42.268 31.3267 42.7651Z" fill="white"/>
<path fill-rule="evenodd" clip-rule="evenodd" d="M24.0001 0.993774L47.4001 12.6938V40.04L37.5486 45.2941L36.7016 43.7059L45.6001 38.96V14.6703L24.9001 24.4453V29.5H23.1001V24.4453L2.4001 14.6703V38.9624L10.0518 43.0826L9.19841 44.6674L0.600098 40.0376V12.6938L24.0001 0.993774ZM3.55882 13.2269L24.0001 22.8797L30.6618 19.7339L10.257 9.87781L3.55882 13.2269ZM12.2905 8.86106L32.7545 18.7457L37.5518 16.4803L17.1285 6.44203L12.2905 8.86106ZM19.1514 5.4306L39.6329 15.4975L44.4414 13.2269L24.0001 3.00624L19.1514 5.4306Z" fill="white"/>
</svg>
